<svg viewBox="0 0 200 200" xmlns="http://www.w3.org/2000/svg">
  <path fill="#31b8f72f" d="M46.2,-78.7C60.3,-71.8,72.7,-60.4,77.3,-46.6C81.9,-32.7,78.7,-16.4,77.9,-0.5C77,15.4,78.6,30.9,72.3,41.7C66,52.5,51.8,58.8,38.4,64.4C25,70,12.5,75,-0.4,75.8C-13.4,76.6,-26.8,73.1,-38.9,66.8C-51.1,60.4,-61.9,51.2,-68.9,39.6C-75.8,28,-78.9,14,-81.1,-1.3C-83.4,-16.6,-84.7,-33.1,-79.1,-47C-73.4,-60.9,-60.7,-72,-46.4,-78.8C-32,-85.6,-16,-88.1,0,-88.1C16,-88.1,32,-85.6,46.2,-78.7Z" transform="translate(100 100)" />
</svg>